<svg xmlns="http://www.w3.org/2000/svg" width="54.767" height="88.812" viewBox="0 0 54.767 88.812"><defs><style>.a{fill:#fffde9;}.b{fill:#ececd8;}.c{fill:#ffd8b1;}.d{fill:#ffcaa9;}.e{fill:#ff7bac;}.f{fill:#fd58a1;}.g{fill:#272a56;}</style></defs><g transform="translate(-19 -2)"><g transform="translate(20.48 3.48)"><path class="a" d="M39.842,16.322C39.842,10.4,35.4,7.441,33.921,3,32.441,7.441,28,10.4,28,16.322a5.921,5.921,0,1,0,11.842,0Z" transform="translate(-16.158 -3)"/><path class="b" d="M28,16.322c5.921,0,7.4-5.921,5.921-13.322,1.48,4.441,5.921,7.4,5.921,13.322a5.921,5.921,0,1,1-11.842,0Z" transform="translate(-16.158 -3)"/><path class="c" d="M55.525,26.96h0a2.96,2.96,0,0,1-2.96,2.96h0l-14.8,48.847L22.96,29.921h0A2.96,2.96,0,0,1,20,26.96h0A2.96,2.96,0,0,1,22.96,24h29.6A2.96,2.96,0,0,1,55.525,26.96Z" transform="translate(-20 7.084)"/><path class="d" d="M25.942,47.243c8.967,0,16.368-8.881,16.368-19.243h7.4l-14.8,47.366Z" transform="translate(-17.147 9.005)"/><path class="d" d="M50.258,32.441H23.346L22,28H51.6Z" transform="translate(-19.04 9.005)"/><path class="a" d="M47.163,18H26.441A4.44,4.44,0,0,0,22,22.441h0a4.44,4.44,0,0,0,4.441,4.441H47.163A4.44,4.44,0,0,0,51.6,22.441h0A4.44,4.44,0,0,0,47.163,18Z" transform="translate(-19.04 4.203)"/><path class="a" d="M41.282,12H29.441A4.44,4.44,0,0,0,25,16.441h0a4.44,4.44,0,0,0,4.441,4.441H41.282a4.44,4.44,0,0,0,4.441-4.441h0A4.44,4.44,0,0,0,41.282,12Z" transform="translate(-17.599 1.322)"/><path class="a" d="M35.96,42.723h0A2.96,2.96,0,0,1,33,39.762V22h5.921V39.762A2.96,2.96,0,0,1,35.96,42.723Z" transform="translate(-13.757 6.124)"/><path class="b" d="M35.96,41.762h0A2.96,2.96,0,0,1,33,38.8V24h5.921V38.8A2.96,2.96,0,0,1,35.96,41.762Z" transform="translate(-13.757 7.084)"/><path class="e" d="M54.842,20.762H43V8.921A5.921,5.921,0,0,1,48.921,3h0a5.921,5.921,0,0,1,5.921,5.921h0a5.921,5.921,0,0,1,5.921,5.921h0A5.921,5.921,0,0,1,54.842,20.762Z" transform="translate(-8.955 -3)"/><path class="f" d="M43,18.842A11.835,11.835,0,0,0,54.842,7h0a5.921,5.921,0,0,1,5.921,5.921h0a5.921,5.921,0,0,1-5.921,5.921Z" transform="translate(-8.955 -1.079)"/><path class="b" d="M28,20.881A8.877,8.877,0,0,0,36.881,12h2.96a4.44,4.44,0,0,1,4.441,4.441h0a4.44,4.44,0,0,1-4.441,4.441Z" transform="translate(-16.158 1.322)"/><path class="b" d="M31,26.881A8.877,8.877,0,0,0,39.881,18h2.96a4.44,4.44,0,0,1,4.441,4.441h0a4.44,4.44,0,0,1-4.441,4.441Z" transform="translate(-14.718 4.203)"/></g><path class="g" d="M67.722,8.045A7.4,7.4,0,0,0,53.045,9.4V20.63l-3.653,3.653c-.055-.007-.11-.01-.166-.016a5.856,5.856,0,0,0,.859-3.024,5.919,5.919,0,0,0-4.515-5.734c-.348-3.433-2.023-5.943-3.527-8.181a18.557,18.557,0,0,1-2.395-4.316,1.481,1.481,0,0,0-2.809,0,18.472,18.472,0,0,1-2.395,4.316c-1.505,2.238-3.179,4.748-3.527,8.181a5.862,5.862,0,0,0-3.658,8.757,5.856,5.856,0,0,0-4.441,8.88A4.418,4.418,0,0,0,22.29,41.8L36.826,89.761a1.48,1.48,0,0,0,2.833,0L54.195,41.8a4.418,4.418,0,0,0-.527-8.649,5.811,5.811,0,0,0-1.354-7.6l2.824-2.824H66.366A7.4,7.4,0,0,0,67.722,8.045ZM36.9,8.981c.454-.675.915-1.36,1.343-2.074.428.712.888,1.4,1.343,2.072a15.505,15.505,0,0,1,2.974,6.341H33.926A15.546,15.546,0,0,1,36.9,8.981Zm-4.578,9.3H44.163a2.96,2.96,0,0,1,0,5.921H32.322a2.96,2.96,0,1,1,0-5.921Zm-4.441,8.881H48.6a2.96,2.96,0,1,1,0,5.921h-2.96a1.48,1.48,0,0,0-1.48,1.48v14.8a1.48,1.48,0,0,1-2.96,0v-14.8a1.48,1.48,0,0,0-1.48-1.48H27.881a2.96,2.96,0,0,1,0-5.921Zm-4.441,8.881h14.8V39h-14.8a1.48,1.48,0,0,1,0-2.96Zm14.8,48.183L25.436,41.965H38.243v7.4a4.441,4.441,0,0,0,8.881,0v-7.4h3.925Zm16.282-46.7A1.482,1.482,0,0,1,53.045,39H47.124v-2.96h5.921A1.482,1.482,0,0,1,54.525,37.525ZM66.366,19.762H56V9.4a4.441,4.441,0,1,1,8.881,0,1.48,1.48,0,0,0,1.48,1.48,4.441,4.441,0,0,1,0,8.881Z" transform="translate(0)"/></g></svg>