<svg xmlns="http://www.w3.org/2000/svg" width="31.717" height="31.717" viewBox="0 0 31.717 31.717"><defs><style>.a{fill:#101010;}</style></defs><path class="a" d="M28.319,2.25H3.4A3.4,3.4,0,0,0,0,5.648v24.92a3.4,3.4,0,0,0,3.4,3.4H28.319a3.4,3.4,0,0,0,3.4-3.4V5.648A3.4,3.4,0,0,0,28.319,2.25ZM24.857,13.492c.014.2.014.4.014.6A13.121,13.121,0,0,1,11.66,27.3a13.15,13.15,0,0,1-7.129-2.081,9.783,9.783,0,0,0,1.119.057A9.309,9.309,0,0,0,11.412,23.3a4.649,4.649,0,0,1-4.34-3.221,5,5,0,0,0,2.1-.085,4.644,4.644,0,0,1-3.717-4.559v-.057a4.64,4.64,0,0,0,2.1.588A4.633,4.633,0,0,1,5.48,12.1a4.585,4.585,0,0,1,.63-2.343,13.184,13.184,0,0,0,9.572,4.857A4.653,4.653,0,0,1,23.6,10.37a9.1,9.1,0,0,0,2.945-1.119,4.631,4.631,0,0,1-2.039,2.556,9.24,9.24,0,0,0,2.676-.722A9.773,9.773,0,0,1,24.857,13.492Z" transform="translate(0 -2.25)"/></svg>