<svg xmlns="http://www.w3.org/2000/svg" width="31.735" height="31.727" viewBox="0 0 31.735 31.727"><defs><style>.a{fill:#101010;}</style></defs><path class="a" d="M15.866,9.967A8.135,8.135,0,1,0,24,18.1,8.122,8.122,0,0,0,15.866,9.967Zm0,13.423A5.288,5.288,0,1,1,21.154,18.1,5.3,5.3,0,0,1,15.866,23.39ZM26.23,9.634a1.9,1.9,0,1,1-1.9-1.9A1.893,1.893,0,0,1,26.23,9.634Zm5.388,1.926a9.389,9.389,0,0,0-2.563-6.648,9.451,9.451,0,0,0-6.648-2.563c-2.619-.149-10.471-.149-13.09,0A9.438,9.438,0,0,0,2.669,4.9,9.42,9.42,0,0,0,.106,11.553c-.149,2.619-.149,10.471,0,13.09a9.389,9.389,0,0,0,2.563,6.648,9.463,9.463,0,0,0,6.648,2.563c2.619.149,10.471.149,13.09,0a9.39,9.39,0,0,0,6.648-2.563,9.451,9.451,0,0,0,2.563-6.648c.149-2.619.149-10.464,0-13.083ZM28.234,27.454a5.354,5.354,0,0,1-3.016,3.016c-2.089.828-7.044.637-9.352.637s-7.271.184-9.352-.637A5.354,5.354,0,0,1,3.5,27.454c-.828-2.088-.637-7.044-.637-9.352s-.184-7.271.637-9.352A5.354,5.354,0,0,1,6.513,5.733C8.6,4.9,13.558,5.1,15.866,5.1s7.271-.184,9.352.637a5.354,5.354,0,0,1,3.016,3.016c.828,2.088.637,7.044.637,9.352S29.062,25.372,28.234,27.454Z" transform="translate(0.005 -2.238)"/></svg>