<svg xmlns="http://www.w3.org/2000/svg" width="31.717" height="31.717" viewBox="0 0 31.717 31.717"><defs><style>.a{fill:#101010;}</style></defs><path class="a" d="M15.859,8.678A9.33,9.33,0,0,0,7.951,22.972l.219.354-.942,3.441,3.533-.927.34.205a9.307,9.307,0,0,0,4.75,1.3h.007A9.435,9.435,0,0,0,25.3,18.016a9.374,9.374,0,0,0-2.839-6.6A9.26,9.26,0,0,0,15.859,8.678Zm5.487,13.338a2.861,2.861,0,0,1-1.89,1.331c-.892.135-1.586.064-3.363-.7A12.6,12.6,0,0,1,11.3,18.413a5.435,5.435,0,0,1-1.147-2.9,3.142,3.142,0,0,1,.984-2.343,1.021,1.021,0,0,1,.75-.354c.184,0,.375,0,.538.007s.4-.064.63.481.793,1.94.864,2.081a.5.5,0,0,1,.021.488c-.538,1.076-1.112,1.034-.821,1.529a7.643,7.643,0,0,0,3.816,3.335c.283.142.446.12.609-.071s.7-.821.885-1.1.375-.234.63-.142,1.635.772,1.919.913.467.212.538.326a2.491,2.491,0,0,1-.17,1.352ZM28.319,2.25H3.4A3.4,3.4,0,0,0,0,5.648v24.92a3.4,3.4,0,0,0,3.4,3.4H28.319a3.4,3.4,0,0,0,3.4-3.4V5.648A3.4,3.4,0,0,0,28.319,2.25ZM15.851,29.238a11.217,11.217,0,0,1-5.366-1.366L4.531,29.436l1.593-5.819a11.248,11.248,0,1,1,21.062-5.6A11.331,11.331,0,0,1,15.851,29.238Z" transform="translate(0 -2.25)"/></svg>