<svg xmlns="http://www.w3.org/2000/svg" width="31.232" height="50.647" viewBox="0 0 31.232 50.647"><defs><style>.a{fill:#fffde9;}.b{fill:#ececd8;}.c{fill:#ffd8b1;}.d{fill:#ffcaa9;}.e{fill:#ff7bac;}.f{fill:#fd58a1;}.g{fill:#272a56;}</style></defs><g transform="translate(-19 -2)"><g transform="translate(19.844 2.844)"><path class="a" d="M34.753,10.6c0-3.376-2.532-5.065-3.376-7.6C30.532,5.532,28,7.221,28,10.6a3.376,3.376,0,1,0,6.753,0Z" transform="translate(-21.247 -3)"/><path class="b" d="M28,10.6c3.376,0,4.221-3.376,3.376-7.6.844,2.532,3.376,4.221,3.376,7.6A3.376,3.376,0,1,1,28,10.6Z" transform="translate(-21.247 -3)"/><path class="c" d="M40.259,25.688h0a1.688,1.688,0,0,1-1.688,1.688h0L30.129,55.232,21.688,27.376h0A1.688,1.688,0,0,1,20,25.688h0A1.688,1.688,0,0,1,21.688,24H38.57A1.688,1.688,0,0,1,40.259,25.688Z" transform="translate(-20 -6.274)"/><path class="d" d="M25.942,38.973c5.114,0,9.334-5.065,9.334-10.973H39.5L31.056,55.012Z" transform="translate(-20.926 -6.897)"/><path class="d" d="M38.115,30.532H22.767L22,28H38.882Z" transform="translate(-20.312 -6.897)"/><path class="a" d="M36.35,18H24.532A2.532,2.532,0,0,0,22,20.532h0a2.532,2.532,0,0,0,2.532,2.532H36.35a2.532,2.532,0,0,0,2.532-2.532h0A2.532,2.532,0,0,0,36.35,18Z" transform="translate(-20.312 -5.338)"/><path class="a" d="M34.285,12H27.532A2.532,2.532,0,0,0,25,14.532h0a2.532,2.532,0,0,0,2.532,2.532h6.753a2.532,2.532,0,0,0,2.532-2.532h0A2.532,2.532,0,0,0,34.285,12Z" transform="translate(-20.779 -4.403)"/><path class="a" d="M34.688,33.818h0A1.688,1.688,0,0,1,33,32.129V22h3.376V32.129A1.688,1.688,0,0,1,34.688,33.818Z" transform="translate(-22.027 -5.962)"/><path class="b" d="M34.688,34.129h0A1.688,1.688,0,0,1,33,32.441V24h3.376v8.441A1.688,1.688,0,0,1,34.688,34.129Z" transform="translate(-22.027 -6.274)"/><path class="e" d="M49.753,13.129H43V6.376A3.377,3.377,0,0,1,46.376,3h0a3.377,3.377,0,0,1,3.376,3.376h0a3.377,3.377,0,0,1,3.376,3.376h0A3.377,3.377,0,0,1,49.753,13.129Z" transform="translate(-23.585 -3)"/><path class="f" d="M43,13.753A6.749,6.749,0,0,0,49.753,7h0a3.377,3.377,0,0,1,3.376,3.376h0a3.377,3.377,0,0,1-3.376,3.376Z" transform="translate(-23.585 -3.624)"/><path class="b" d="M28,17.065A5.062,5.062,0,0,0,33.065,12h1.688a2.532,2.532,0,0,1,2.532,2.532h0a2.532,2.532,0,0,1-2.532,2.532Z" transform="translate(-21.247 -4.403)"/><path class="b" d="M31,23.065A5.062,5.062,0,0,0,36.065,18h1.688a2.532,2.532,0,0,1,2.532,2.532h0a2.532,2.532,0,0,1-2.532,2.532Z" transform="translate(-21.715 -5.338)"/></g><path class="g" d="M46.785,5.447a4.221,4.221,0,0,0-8.37.773v6.4l-2.083,2.083c-.031,0-.062-.006-.095-.009a3.34,3.34,0,0,0,.49-1.725A3.375,3.375,0,0,0,34.152,9.7,9.969,9.969,0,0,0,32.14,5.038a10.582,10.582,0,0,1-1.366-2.461.845.845,0,0,0-1.6,0,10.534,10.534,0,0,1-1.366,2.461A9.96,9.96,0,0,0,25.8,9.7,3.343,3.343,0,0,0,23.709,14.7a3.34,3.34,0,0,0-2.532,5.064,2.519,2.519,0,0,0-.3,4.932l8.289,27.353a.844.844,0,0,0,1.616,0L39.07,24.694a2.519,2.519,0,0,0-.3-4.932A3.314,3.314,0,0,0,38,15.428l1.611-1.611h6.4a4.221,4.221,0,0,0,.773-8.37Zm-17.577.533c.259-.385.522-.776.766-1.183.244.406.506.8.766,1.182a8.842,8.842,0,0,1,1.7,3.616H27.512A8.866,8.866,0,0,1,29.208,5.981Zm-2.611,5.3H33.35a1.688,1.688,0,0,1,0,3.376H26.6a1.688,1.688,0,1,1,0-3.376ZM24.065,16.35H35.882a1.688,1.688,0,1,1,0,3.376H34.194a.844.844,0,0,0-.844.844v8.441a.844.844,0,0,1-1.688,0V20.57a.844.844,0,0,0-.844-.844H24.065a1.688,1.688,0,0,1,0-3.376Zm-2.532,5.065h8.441V23.1H21.532a.844.844,0,0,1,0-1.688Zm8.441,27.478-7.3-24.1h7.3v4.221a2.532,2.532,0,0,0,5.065,0V24.791h2.239Zm9.285-26.633a.845.845,0,0,1-.844.844H35.038V21.415h3.376A.845.845,0,0,1,39.259,22.259Zm6.753-10.129H40.1V6.221a2.532,2.532,0,1,1,5.065,0,.844.844,0,0,0,.844.844,2.532,2.532,0,0,1,0,5.065Z" transform="translate(0)"/></g></svg>